<?xml version="1.0" standalone="no"?>
<!DOCTYPE svg PUBLIC "-//W3C//DTD SVG 20010904//EN"
 "http://www.w3.org/TR/2001/REC-SVG-20010904/DTD/svg10.dtd">
<svg version="1.0" xmlns="http://www.w3.org/2000/svg"
 width="301.000000pt" height="426.000000pt" viewBox="0 0 301.000000 426.000000"
 preserveAspectRatio="xMidYMid meet">
<metadata>
Created by potrace 1.13, written by Peter Selinger 2001-2015
</metadata>
<g transform="translate(0.000000,426.000000) scale(0.100000,-0.100000)"
fill="#000000" stroke="none">
<path d="M1126 4195 c-9 -13 -16 -27 -16 -30 0 -3 20 -5 45 -5 l45 0 0 -45 c0
-25 5 -45 10 -45 7 0 10 -22 8 -57 l-3 -58 -78 -7 c-299 -27 -575 -113 -741
-232 -96 -69 -194 -178 -231 -260 -34 -73 -65 -192 -65 -245 0 -26 -4 -31 -24
-31 -50 0 -64 -69 -16 -80 22 -5 25 -12 26 -50 2 -115 36 -288 86 -440 111
-343 324 -607 636 -790 l72 -42 0 -165 0 -165 -177 -409 c-98 -225 -180 -408
-183 -409 -3 0 -4 20 -2 45 l4 45 -96 0 -96 0 0 -345 0 -345 95 0 95 0 0 123
1 122 47 115 48 115 417 3 417 2 -2 -177 -3 -178 -27 -3 c-27 -3 -28 -5 -28
-63 l0 -59 120 0 120 0 0 60 c0 57 -1 60 -25 60 l-25 0 0 180 0 180 408 0 408
0 52 -117 52 -118 0 -122 0 -123 88 0 87 0 -3 345 -3 345 -84 0 -85 0 0 -52
c0 -51 -8 -35 -185 367 l-185 420 0 172 0 172 65 33 c160 79 325 234 450 423
155 231 247 490 271 757 5 63 10 79 25 83 44 14 46 70 3 81 -18 5 -27 17 -34
48 -44 170 -79 250 -146 332 -162 199 -387 304 -799 374 l-160 27 -3 48 c-2
26 2 53 7 58 6 6 11 30 11 54 0 42 0 43 35 43 39 0 42 6 19 38 l-15 22 -358 0
-359 0 -16 -25z m249 -90 c78 -19 206 -19 278 0 32 8 64 15 71 15 24 0 48 -62
44 -113 l-3 -48 -253 -2 -252 -2 0 60 c0 61 18 105 43 105 7 -1 39 -7 72 -15z
m-505 -3059 c0 -7 18 -33 40 -58 66 -76 175 -112 390 -128 74 -5 138 -10 143
-10 4 0 6 -66 5 -147 l-3 -148 -404 -3 c-321 -2 -402 0 -398 10 3 7 41 96 85
198 43 102 89 213 103 247 21 55 39 73 39 39z m1327 -73 c36 -77 152 -341 180
-410 4 -10 -79 -13 -396 -13 l-401 0 0 149 0 149 88 6 c230 16 320 40 394 105
24 22 52 55 63 75 11 20 21 36 23 36 2 0 24 -44 49 -97z"/>
</g>
</svg>
